<?xml version="1.0" encoding="UTF-8"?>
<!DOCTYPE svg PUBLIC "-//W3C//DTD SVG 1.1//EN" "http://www.w3.org/Graphics/SVG/1.1/DTD/svg11.dtd">
<!-- Creator: CorelDRAW X6 -->
<?xml-stylesheet href="log.css" type="text/css"?>
<svg xmlns="http://www.w3.org/2000/svg" xml:space="preserve" width="794px" height="1123px" version="1.1" style="shape-rendering:geometricPrecision; text-rendering:geometricPrecision; image-rendering:optimizeQuality; fill-rule:evenodd; clip-rule:evenodd"
viewBox="0 0 794 1123"
 xmlns:xlink="http://www.w3.org/1999/xlink">
 <g id="Capa_x0020_1">
  <metadata id="CorelCorpID_0Corel-Layer"/>
  <g id="_278741008">
   <path class="fil0" d="M290 511c-4,2 -17,3 -23,4 -3,0 -9,1 -12,2 -7,2 -3,4 -6,8 -11,2 -49,5 -56,10 1,7 1,5 17,11 7,3 15,5 21,9 -4,5 -11,10 -16,14 -11,10 -13,10 -12,18 14,1 40,-8 57,-8 25,1 77,-14 88,-7 16,11 24,17 42,25 9,4 14,8 26,3 15,-6 31,-15 43,-24 11,-8 7,-9 24,-7l60 7c4,1 9,2 14,2 5,1 3,0 7,0 2,0 -1,0 3,-1 2,0 3,0 5,0 20,2 49,9 55,8l2 -1c1,-6 -3,-9 -11,-16l-16 -15c5,-4 23,-10 31,-13 6,-2 6,-1 7,-7 -5,-4 -52,-10 -62,-11 -5,-6 5,-5 -8,-8l-44 -7c2,-5 6,-10 9,-16 3,-6 5,-12 8,-19 5,-13 9,-27 12,-41 6,-31 4,-70 4,-103 0,-70 8,-63 -44,-63l-239 0c-10,0 -15,1 -17,10 -2,10 0,41 0,53 0,53 -4,96 16,144 5,13 14,25 18,36z"/>
   <path class="fil1" d="M532 458c14,-62 10,-88 10,-154l-128 0c0,22 0,44 0,67 0,23 -6,14 32,37 15,9 29,17 43,25 8,5 36,23 43,25z"/>
   <path class="fil1" d="M282 455l58 -33c10,-5 19,-11 29,-17 10,-6 21,-11 30,-17l0 -84 -127 0c0,35 -5,127 10,151z"/>
   <path class="fil1" d="M287 469c2,12 15,31 21,40l74 -6c1,-6 -3,-14 -3,-23l0 -28c0,-25 14,-14 16,-12l3 9c6,0 4,-1 7,-3 4,-3 4,-1 8,-3 1,-13 0,-21 15,-16 4,8 2,23 2,34 21,11 6,24 2,43l75 4c6,-6 16,-25 19,-36l-119 -70 -59 34c-10,6 -53,31 -60,34z"/>
   <path class="fil0" d="M325 322c-20,5 -32,26 -20,46 14,23 3,15 13,29l1 2c1,2 7,18 18,10 5,-4 10,-17 12,-25 3,-11 10,-14 12,-26 4,-22 -15,-40 -36,-35z"/>
   <path class="fil1" d="M320 392l23 1c4,-29 13,-23 14,-38 1,-15 -10,-27 -24,-28 -15,-1 -27,11 -27,25 0,15 8,10 14,40z"/>
   <path class="fil0" d="M514 234l21 7c1,-2 2,-5 3,-6 0,0 1,-3 1,-3 0,-5 -6,-5 2,-15 4,1 9,2 12,5 -8,19 -5,2 -10,13 -1,1 -2,6 -2,7 4,4 14,7 20,9 1,-1 4,-6 4,-7 5,-12 -8,4 5,-22 14,-30 5,-4 13,-16 1,-2 3,-6 3,-9l-24 -10c-8,27 2,3 -3,21 -5,-1 -10,-3 -13,-6 5,-15 4,6 11,-17 -6,-3 -18,-8 -25,-8 -1,3 -2,5 -2,7 -2,13 8,-8 -2,21 -12,35 -4,-3 -14,27z"/>
   <path class="fil0" d="M284 173c0,2 1,6 2,8 1,4 4,4 5,5 5,4 -1,-4 1,1 0,8 0,18 0,25 -1,12 -3,2 -4,9 0,3 2,7 3,10l21 -5c-5,-21 -4,-7 -6,-15 4,-2 9,-3 13,-2 -1,6 0,0 -1,3 -1,4 0,7 2,12l21 -4c-3,-24 0,1 -13,-27 -5,-10 -10,-18 -14,-28l-31 7z"/>
   <path class="fil0" d="M403 205l0 11 22 0c1,-12 0,-9 -2,-16l14 0c1,9 -5,-3 -3,17l21 2c1,-2 1,-5 2,-7 0,-12 -1,1 -4,-9 0,0 -1,-4 -1,-4l-6 -39 -32 -3c-2,24 7,5 0,25 -7,21 -2,15 -11,22z"/>
   <path class="fil0" d="M497 212c-16,6 -14,-2 -21,-5 -2,-1 -7,-1 -10,-1l-3 15c5,2 8,2 14,3 14,3 28,11 33,-8 6,-19 3,-23 -16,-27 -3,-1 -6,-1 -8,-4 -2,-5 3,-5 9,-4 14,3 -1,6 22,10l5 -15c-1,0 -44,-19 -51,-2 -4,10 -2,20 5,24 9,6 22,-1 21,14z"/>
   <path class="fil0" d="M394 183l-24 0 1 13 9 -1c0,11 -10,9 -17,7 -1,-4 -4,-22 -2,-26 1,-4 11,-10 18,0l15 2c0,-23 -11,-22 -33,-19 -22,2 -15,19 -13,35 1,10 0,15 7,20 8,7 30,2 33,0 10,-7 7,-17 7,-32z"/>
   <path class="fil0" d="M218 199c13,25 5,-2 13,16 3,6 7,17 11,22 -3,4 -7,0 2,15l41 -17 -5 -16 -13 4c-1,4 4,5 -11,9l-12 -27c0,-4 1,-2 2,-5 1,-4 -2,-8 -4,-11 -8,3 -16,6 -23,10z"/>
   <path class="fil1" d="M389 503l36 0c2,-10 11,-24 8,-34 -4,-2 -15,-5 -20,-1 1,4 1,3 7,3 6,0 5,-1 9,2 -1,6 -8,5 -12,11 -5,6 -2,14 -8,16 -6,-5 1,-18 5,-21l-5 -4c-2,-2 -2,-2 -3,-4 -8,-1 -15,4 -16,-7 -2,-11 3,-19 -3,-22 -3,3 -2,3 -2,14 0,33 0,18 4,47z"/>
   <path class="fil1" d="M445 567l-75 0c5,5 29,20 37,21 7,0 34,-17 39,-21z"/>
   <path class="fil0" d="M469 401c4,-4 14,-44 17,-55 1,-3 7,-19 -2,-15 -3,2 -14,45 -17,55 -2,8 -7,13 2,15z"/>
   <path class="fil0" d="M432 366c2,5 8,10 12,14 4,4 9,11 14,13 2,-2 1,-1 3,-4 -1,-4 -16,-18 -20,-21 4,-9 17,-15 20,-23 -2,-3 -1,-2 -3,-4 -6,2 -23,20 -26,25z"/>
   <path class="fil2" d="M492 344c3,9 17,14 20,23 -4,3 -18,16 -20,21l4 4c4,-2 22,-20 26,-25 -2,-6 -22,-25 -26,-26l-4 3z"/>
   <path class="fil1" d="M428 536l6 9 7 0c-1,-4 -2,-6 -5,-9 3,-4 9,-7 3,-13 -3,-4 -12,-3 -18,-2 0,5 -1,13 0,18 0,4 -1,6 4,6 3,0 3,2 3,-8z"/>
   <path class="fil1" d="M331 537l-2 -1c-2,-1 0,0 -2,-2 -4,-4 -4,-8 -12,-7 -2,4 0,9 0,14 1,9 -1,10 6,10 1,-2 1,0 1,-3 0,-1 0,-2 0,-3 0,-2 -1,-5 -1,-7 2,2 5,5 7,8 5,6 1,5 10,5l-2 -24 -5 0c-3,4 -2,3 -1,13z"/>
   <path class="fil1" d="M291 547l-3 -17 -5 1c-1,4 -2,25 13,23 12,-1 11,-16 7,-25l-4 0c-5,9 8,21 -7,19z"/>
   <path class="fil1" d="M463 540c-7,2 -1,-2 -12,-3 1,17 28,5 16,-4 -4,-3 -6,0 -9,-5 5,-4 0,1 12,1 -3,-18 -28,-3 -16,5 5,3 6,0 9,6z"/>
   <path class="fil1" d="M376 538c0,0 -1,-1 -1,-1 0,0 0,-1 -1,-1 -7,-11 -2,-15 -12,-14l9 24 8 0 8 -24c-8,0 -7,-1 -11,17z"/>
   <path class="fil1" d="M396 544l12 0c0,0 1,0 1,0 0,0 1,0 1,0 0,0 1,0 1,0 0,0 1,0 1,-1 -3,-8 -6,1 -9,-5 2,-5 5,0 8,-5 -3,-5 1,0 -4,-2 -5,-2 -3,1 -4,-3l5 -2c5,-2 3,2 4,-4 -3,-2 -10,-1 -15,-1l0 24z"/>
   <path class="fil1" d="M529 553l4 0c3,-4 1,-6 5,-12 3,-4 6,-7 8,-11l-7 -1 -4 6c-2,2 0,0 -3,2l-2 -9 -7 -1c0,4 2,8 4,12 2,7 0,10 2,13z"/>
   <path class="fil1" d="M496 525c0,5 -1,2 1,3 1,1 0,0 2,1 0,0 1,0 1,0l2 1c0,6 -3,14 0,18l4 0c0,0 0,-1 1,-1 0,0 0,-1 0,-1l2 -17c1,0 3,0 3,0 3,-1 2,0 4,-1 -1,-3 1,-3 -9,-4 -4,0 -8,-2 -11,0z"/>
   <path class="fil0" d="M582 239l13 7 6 -11c-3,-4 -8,-5 -13,-7l-6 11z"/>
   <path class="fil0" d="M199 234l6 11c4,-2 9,-5 13,-7 -3,-4 -2,-7 -6,-11l-13 7z"/>
   <path class="fil0" d="M314 356c7,-4 1,-13 12,-17 5,-2 4,1 7,-4 -8,-9 -28,15 -19,22z"/>
   <path class="fil1" d="M480 547c7,0 5,-1 6,-9 0,-5 1,-9 0,-14l-6 0c0,4 -1,8 -1,12l0 8c1,6 0,1 1,3z"/>
   <path class="fil1" d="M354 547c-7,0 -5,-1 -6,-9 0,-5 -1,-9 0,-14l6 0c0,4 1,8 1,12l0 8c-1,6 0,1 -1,3z"/>
  </g>
 </g>
</svg>
